<svg fill="none" height="24" viewBox="0 0 24 24" width="24" xmlns="http://www.w3.org/2000/svg"><path d="m20.9788 10.8216c-.0211-.3459-.0846-.7135-.1903-1.14592-.1058-.43244-.275-.88649-.5077-1.38379-.2326-.47567-.5499-.99459-.9518-1.47027-.148-.19459-.3172-.38919-.5076-.56216.275-1.12432-.3384-2.0973-.3384-2.0973-1.0576-.06486-1.7133.32433-1.9671.51892-.0423-.02162-.0846-.04324-.1269-.04324-.1693-.06487-.3596-.15135-.55-.1946-.1904-.06486-.3807-.1081-.5711-.17297-.1903-.04324-.4019-.08649-.6134-.12973-.0423 0-.0634 0-.1057-.02162-.4654-1.49189-1.7768-2.11892-1.7768-2.11892-1.4594.95135-1.7555 2.29189-1.7555 2.29189s0 .02162-.0212.08649c-.0846.02162-.1692.04324-.2538.06486-.1058.04325-.2327.08649-.3384.10811-.1058.04324-.2327.08649-.3385.12973-.21149.10811-.44415.21622-.65567.32433-.21152.12973-.42303.25945-.6134.38918-.02115-.02162-.0423-.02162-.0423-.02162-2.03055-.77838-3.82844.1946-3.82844.1946-.16921 2.2054.80376 3.61081 1.01528 3.87027-.0423.12973-.08461.28108-.12691.41081-.14806.49725-.25382 1.01625-.33842 1.55675 0 .0865-.02116.1514-.02116.2378-1.90364.9082-2.45358 2.8541-2.45358 2.8541 1.56522 1.8378 3.40541 1.9676 3.40541 1.9676.23266.4324.50763.8216.80376 1.2108.1269.1513.25381.3027.40188.454-.5711 1.6649.0846 3.0703.0846 3.0703 1.75558.0649 2.89775-.7784 3.13045-.973.1692.0649.3596.1081.5288.1514.5288.1513 1.0787.2162 1.6286.2594h.4019.275c.8249 1.2108 2.2632 1.3622 2.2632 1.3622 1.0364-1.1027 1.0787-2.2054 1.0787-2.4432 0 0 0 0 0-.0217 0-.0216 0-.0432 0-.0432 0-.0216 0-.0433 0-.0433.2116-.1513.4231-.3243.6134-.4972.4019-.3892.7827-.8217 1.0788-1.2757.0211-.0433.0634-.0865.0846-.1298 1.1633.0649 1.9882-.7351 1.9882-.7351-.1903-1.2324-.8883-1.8378-1.0364-1.9676 0 0 0 0-.0211-.0216h-.0212s-.0212 0-.0212-.0216c0-.0649.0212-.1514.0212-.2162 0-.1297.0212-.2595.0212-.4108v-.173c0-.0432 0-.0216 0-.0432v-.1946c0-.0433 0-.0649 0-.1081 0-.0433 0-.0649 0-.1082v-.1081l-.0212-.1081c-.0212-.1297-.0423-.2811-.0846-.4108-.1269-.5405-.3173-1.0378-.5923-1.4919-.2749-.454-.6133-.8648-.9941-1.2108-.3807-.34593-.8037-.60539-1.2479-.8216-.4442-.1946-.9095-.34595-1.3749-.38919-.2326-.02163-.4653-.04325-.698-.04325h-.1057-.0212-.1269c-.0423 0-.0634 0-.0846 0-.1269.02162-.2327.02162-.3596.04325-.4653.08648-.8883.25946-1.2902.49729-.3808.23784-.7192.5189-.9941.8649-.275.3243-.4865.6919-.6346 1.081-.1481.3892-.2327.7784-.2538 1.1676v.2811.0649.0864.1298c.0211.1946.0634.3892.1057.5621.1058.3676.2539.6919.4654.9514.1903.2811.4442.4973.698.6919.2538.173.5288.3027.8037.3892.275.0865.5288.1081.7827.1081h.0846.0423.0423.0846.0423.0423c.0423 0 .0634 0 .0846-.0216.0211 0 .0634-.0217.0846-.0217.0634-.0216.1057-.0216.1692-.0432.1058-.0432.2115-.0865.3173-.1297.1057-.0433.1903-.1081.2749-.173.0212-.0216.0423-.0433.0635-.0433.0846-.0648.1058-.1945.0212-.281-.0635-.0865-.1693-.1081-.2539-.0433-.0211.0216-.0423.0216-.0634.0433-.0635.0432-.1481.0648-.2327.0865-.0846.0216-.1692.0432-.2538.0648-.0423 0-.0846.0216-.1269.0216-.0212 0-.0423 0-.0635 0-.0211 0-.0423 0-.0634 0-.0212 0-.0423 0-.0635 0-.0211 0-.0634 0-.0846 0h-.0211c-.0212 0-.0212 0-.0423 0-.0212 0-.0423 0-.0635 0-.1904-.0216-.4019-.0864-.5922-.1729-.1904-.0865-.3808-.2162-.55-.3676s-.3173-.3459-.423-.5405c-.1058-.2163-.1904-.4325-.2327-.6919-.0211-.1298-.0211-.2379-.0211-.3676 0-.0432 0-.0649 0-.1081v-.0433c0-.0216 0-.0432 0-.0432 0-.0649.0211-.1297.0211-.1946.0846-.5189.3596-1.0378.7615-1.427.1057-.1081.2115-.1946.3172-.2595.1058-.0865.2327-.1513.3596-.2162s.2538-.1081.4019-.1513c.1269-.0433.275-.0649.423-.0649h.2116.0423.1903c.1481.0216.3173.0432.4654.0649.2961.0648.5922.1729.8672.3459.5499.3027 1.0152.8 1.3114 1.3838.148.3027.2538.6054.2961.9297.0211.0865.0211.173.0211.2379v.1297.0648.0649.1081.1514c0 .0865-.0211.1729-.0211.2594s-.0212.173-.0423.2595c-.0212.0865-.0423.173-.0635.2595-.0423.1729-.1057.3459-.1692.5189-.1269.3243-.2961.6486-.5076.9513-.423.5838-.973 1.0595-1.6287 1.3622-.3173.1513-.6557.2594-1.0153.3243-.1692.0216-.3595.0433-.5288.0649h-.2749c-.0846 0-.1904 0-.275-.0216-.3807-.0217-.7615-.1082-1.121-.2163-.3596-.1081-.7192-.2594-1.0365-.4324-.6557-.3676-1.26905-.8649-1.73439-1.4703-.23267-.3027-.44418-.627-.61339-.9513-.16922-.346-.29613-.6919-.40188-1.0595-.10576-.3675-.14807-.7351-.19037-1.1027v-.4324c0-.0433 0-.0865 0-.1297 0-.1946.02115-.3676.0423-.5622.02116-.1946.06346-.3892.08461-.5622.0423-.1946.08461-.3675.12691-.5621.10576-.3676.23267-.73516.38073-1.05949.29612-.67027.698-1.27567 1.18449-1.75135.12691-.12973.25379-.23784.38069-.34595.1269-.1081.2539-.19459.4019-.3027.1269-.08649.275-.17297.423-.25946.0635-.04324.1481-.06486.2116-.10811.0423-.02162.0846-.04324.1057-.04324.0423-.02162.0846-.04324.1058-.04324.148-.06487.3173-.12973.4653-.17298.0423-.02162.0846-.02162.1269-.04324s.0846-.02162.1269-.04324c.0846-.02162.1692-.04325.2327-.06487.0423-.02162.0846-.02162.1269-.02162s.0846-.02162.1269-.02162.0846-.02162.1269-.02162l.0635-.02162h.0634c.0423 0 .0846-.02163.1269-.02163.0424 0 .0847-.02162.1481-.02162.0423 0 .1058-.02162.1481-.02162h.0846.1269.148.1058.1269.4653c.3173.02162.6134.04324.9096.10811.5922.10811 1.1633.3027 1.6709.56216.5077.25946.973.56216 1.3537.90811.0212.02162.0423.04324.0635.06486.0212.02163.0423.04325.0635.06487.0423.04324.0846.08649.148.12973.0423.04324.0846.08649.1269.12973s.0846.08649.1269.12973c.1692.17297.3173.36757.4654.56216.2749.36757.5076.73514.6768 1.10266.0212.0217.0212.0433.0423.0649.0212.0216.0212.0433.0212.0649.0211.0432.0423.0865.0634.1297.0212.0432.0423.0865.0635.1297.0211.0433.0423.0865.0634.1298.0635.1729.1269.3243.1693.4756.0846.2379.148.4541.1903.6487.0212.0649.0846.1297.1692.1081.0846 0 .1481-.0649.1481-.1514.1269-.3243.1269-.5621.1057-.8216z" fill="#ffffff"/></svg>