<svg height="32" viewBox="0 0 32 32" width="32" xmlns="http://www.w3.org/2000/svg"><path d="m16.265 24.136c-5.068 0-9.599-1.871-12-4.537.932 2.401 2.537 4.537 4.667 6 2.136 1.469 4.667 2.265 7.333 2.265s5.204-.796 7.333-2.265c2.136-1.463 3.735-3.599 4.667-6-2.401 2.667-6.932 4.537-12 4.537zm0-17.605c5.068 0 9.599 1.871 12 4.537-.932-2.401-2.531-4.537-4.667-6-2.265-1.599-4.796-2.401-7.333-2.401-2.667 0-5.197.803-7.333 2.265-2.129 1.599-3.735 3.599-4.667 6.136 2.401-2.803 6.803-4.537 12-4.537zm9.334-6.395c-2.489 0-2.489 3.728 0 3.728s2.489-3.728 0-3.728zm-18.796 26.932c-1.329 0-2.401 1.072-2.401 2.401 0 1.323 1.072 2.395 2.401 2.395 1.323 0 2.395-1.072 2.395-2.395 0-1.329-1.072-2.401-2.395-2.401zm-2-24c-1.781 0-1.781 2.667 0 2.667 1.776 0 1.776-2.667 0-2.667z" fill="#ffffff"/></svg>