<svg xmlns="http://www.w3.org/2000/svg" version="1.0" width="313.000000pt" height="253.000000pt" viewBox="0 0 313.000000 253.000000" preserveAspectRatio="xMidYMid meet">

<g transform="translate(0.000000,253.000000) scale(0.100000,-0.100000)" fill="#fcfcfc" stroke="none">
<path d="M1038 2123 c-171 -105 -259 -164 -262 -178 -3 -11 -6 -85 -6 -165 l0 -145 -107 -60 c-59 -33 -115 -68 -125 -77 -16 -16 -18 -41 -18 -273 0 -232 2 -257 18 -272 10 -10 66 -45 125 -78 l107 -60 0 -145 c0 -80 3 -154 6 -165 3 -14 91 -73 263 -178 142 -86 262 -157 266 -157 4 0 63 34 132 75 68 41 126 75 128 75 2 0 61 -34 130 -76 69 -42 132 -74 139 -71 27 11 511 310 518 321 4 6 8 81 8 166 l0 155 107 60 c59 33 115 68 125 78 16 15 18 40 18 272 0 232 -2 257 -18 273 -10 9 -66 44 -125 77 l-107 60 0 155 c0 85 -4 160 -8 166 -7 11 -491 310 -518 321 -7 3 -70 -29 -139 -71 -69 -42 -128 -76 -130 -76 -2 0 -60 34 -128 75 -69 41 -129 75 -133 75 -5 0 -125 -71 -266 -157z m414 -21 l78 -47 2 -255 3 -255 125 -72 c125 -72 125 -72 133 -117 13 -65 54 -101 117 -101 43 0 54 5 82 33 27 26 33 40 33 75 0 86 -69 140 -151 117 l-43 -12 -116 67 -115 67 0 226 0 227 107 64 c59 35 112 64 118 64 11 0 364 -211 428 -255 23 -17 27 -26 27 -69 l0 -49 -65 0 c-39 0 -65 4 -65 10 0 6 -12 22 -26 35 -21 20 -38 25 -76 25 -43 0 -54 -4 -84 -34 -26 -26 -34 -42 -34 -70 0 -118 130 -169 207 -81 29 34 34 36 85 33 l53 -3 5 -70 5 -69 123 -70 122 -70 0 -198 c0 -109 -3 -198 -7 -197 -5 0 -42 19 -83 42 -69 39 -75 45 -81 82 -13 78 -96 118 -169 80 -74 -38 -78 -150 -8 -199 26 -19 86 -21 122 -5 21 10 34 6 95 -27 39 -21 70 -42 68 -48 -2 -5 -43 -32 -92 -60 l-90 -52 -5 -164 -5 -165 -190 -117 c-104 -64 -206 -126 -226 -137 l-35 -20 -112 67 -112 67 0 102 0 103 100 0 c89 0 100 -2 110 -20 6 -11 24 -27 40 -35 63 -33 141 -8 167 52 20 48 10 92 -28 129 -25 24 -39 29 -81 29 -46 0 -53 -3 -83 -37 l-32 -38 -97 0 -96 0 0 284 0 285 -127 75 -127 75 -18 -30 c-10 -16 -18 -33 -18 -37 0 -4 50 -36 110 -71 l110 -64 0 -86 0 -86 -79 -48 c-44 -26 -84 -47 -90 -47 -7 0 -11 29 -11 79 l0 79 -125 82 -125 81 0 98 0 97 123 69 122 70 3 133 3 132 -36 0 -35 0 0 -104 0 -104 -107 -62 -108 -62 -40 22 c-22 13 -70 40 -107 62 l-68 39 0 135 0 134 71 46 c107 68 99 73 99 -60 l0 -116 40 0 40 0 0 143 0 143 102 62 102 62 36 -21 c19 -12 70 -42 112 -67z m628 -337 c0 -15 -7 -26 -20 -30 -41 -13 -70 43 -33 64 25 13 53 -5 53 -34z m-1132 -274 l73 -42 -3 -102 -3 -102 -112 -63 -113 -63 15 -29 c8 -16 18 -31 22 -33 5 -3 59 23 122 58 l114 64 53 -34 c29 -18 78 -50 108 -71 l57 -37 -3 -81 -3 -81 -120 -72 c-66 -40 -124 -74 -129 -76 -11 -4 21 -67 35 -67 6 0 110 58 231 130 121 71 224 130 229 130 5 0 9 -118 9 -263 l0 -262 -112 -67 -112 -67 -46 26 c-85 49 -120 73 -120 81 0 5 38 30 85 57 47 27 85 53 85 58 0 6 -18 38 -36 66 -2 2 -54 -27 -116 -64 l-113 -67 -30 18 c-16 10 -61 37 -98 61 l-68 43 3 137 3 137 90 54 c50 29 96 56 104 61 11 6 10 14 -5 44 l-19 35 -106 -62 -105 -63 -107 61 -107 60 0 97 0 97 108 62 c59 35 108 64 110 65 2 2 -5 19 -15 39 l-18 35 -85 -49 c-47 -27 -88 -50 -92 -50 -5 0 -8 33 -8 73 l0 73 107 61 108 62 30 -18 c16 -10 63 -37 103 -60z m986 -97 c9 -8 16 -19 16 -24 0 -5 -7 -16 -16 -24 -8 -9 -19 -16 -24 -16 -5 0 -16 7 -24 16 -9 8 -16 19 -16 24 0 5 7 16 16 24 8 9 19 16 24 16 5 0 16 -7 24 -16z m345 -221 c13 -25 -5 -53 -34 -53 -15 0 -26 7 -30 20 -13 41 43 70 64 33z m-345 -509 c9 -8 16 -19 16 -24 0 -11 -29 -40 -40 -40 -11 0 -40 29 -40 40 0 5 7 16 16 24 8 9 19 16 24 16 5 0 16 -7 24 -16z" fill="#fcfcfc"/>
</g>
</svg>